# xmcd
#
# Track frame offsets: 
#        150
#        16241
#        31512
#        52072
#        68417
#        93796
#        108144
#        122060
#        138904
#        153564
#
# Disc length: 2228 seconds
#
# Revision: 0
# Processed by: cddbd v1.5.2PL0 Copyright (c) Steve Scherf et al.
# Submitted via: ExactAudioCopyFreeDBPlugin 1.0
#
DISCID=6f08b20a
DTITLE=Dan Patlansky - Perfection Kills
DYEAR=2018
DGENRE=Blues
TTITLE0=Johnny
TTITLE1=Never Long Enough
TTITLE2=Mayday
TTITLE3=Too Far Gone
TTITLE4=Judge A Man
TTITLE5=Junket Man
TTITLE6=iEyes
TTITLE7=Shake The Cage
TTITLE8=My Dear Boy
TTITLE9=Dog Day
EXTD=
EXTT0=
EXTT1=
EXTT2=
EXTT3=
EXTT4=
EXTT5=
EXTT6=
EXTT7=
EXTT8=
EXTT9=
PLAYORDER=
